{
  "asset": {
    "generator": "Khronos glTF Blender I/O v4.1.63",
    "version": "2.0"
  },
  "scene": 0,
  "scenes": [
    {
      "name": "blend_export",
      "nodes": [
        0
      ]
    }
  ],
  "nodes": [
    {
      "mesh": 0,
      "name": "wooden_axe_02"
    }
  ],
  "materials": [
    {
      "doubleSided": true,
      "name": "wooden_axe_02",
      "normalTexture": {
        "index": 0
      },
      "pbrMetallicRoughness": {
        "baseColorTexture": {
          "index": 1
        },
        "metallicRoughnessTexture": {
          "index": 2
        }
      }
    }
  ],
  "meshes": [
    {
      "name": "Plane",
      "primitives": [
        {
          "attributes": {
            "POSITION": 0,
            "NORMAL": 1,
            "TEXCOORD_0": 2
          },
          "indices": 3,
          "material": 0
        }
      ]
    }
  ],
  "textures": [
    {
      "sampler": 0,
      "source": 0
    },
    {
      "sampler": 0,
      "source": 1
    },
    {
      "sampler": 0,
      "source": 2
    }
  ],
  "images": [
    {
      "mimeType": "image/jpeg",
      "name": "wooden_axe_02_nor_gl",
      "uri": "textures/wooden_axe_02_nor_gl_1k.jpg"
    },
    {
      "mimeType": "image/jpeg",
      "name": "wooden_axe_02_diff",
      "uri": "textures/wooden_axe_02_diff_1k.jpg"
    },
    {
      "mimeType": "image/jpeg",
      "name": "wooden_axe_02_metal-wooden_axe_02_rough",
      "uri": "textures/wooden_axe_02_arm_1k.jpg"
    }
  ],
  "accessors": [
    {
      "bufferView": 0,
      "componentType": 5126,
      "count": 1434,
      "max": [
        0.025264345109462738,
        0.4224969744682312,
        0.18552616238594055
      ],
      "min": [
        -0.02563943900167942,
        -0.28170767426490784,
        -0.0402105338871479
      ],
      "type": "VEC3"
    },
    {
      "bufferView": 1,
      "componentType": 5126,
      "count": 1434,
      "type": "VEC3"
    },
    {
      "bufferView": 2,
      "componentType": 5126,
      "count": 1434,
      "type": "VEC2"
    },
    {
      "bufferView": 3,
      "componentType": 5123,
      "count": 6654,
      "type": "SCALAR"
    }
  ],
  "bufferViews": [
    {
      "buffer": 0,
      "byteLength": 17208,
      "byteOffset": 0,
      "target": 34962
    },
    {
      "buffer": 0,
      "byteLength": 17208,
      "byteOffset": 17208,
      "target": 34962
    },
    {
      "buffer": 0,
      "byteLength": 11472,
      "byteOffset": 34416,
      "target": 34962
    },
    {
      "buffer": 0,
      "byteLength": 13308,
      "byteOffset": 45888,
      "target": 34963
    }
  ],
  "samplers": [
    {
      "magFilter": 9729,
      "minFilter": 9987
    }
  ],
  "buffers": [
    {
      "byteLength": 59196,
      "uri": "wooden_axe_02.bin"
    }
  ]
}